<svg width="24" height="24" viewBox="0 0 24 24" fill="none" xmlns="http://www.w3.org/2000/svg">
<mask id="mask0_1539_1606" style="mask-type:alpha" maskUnits="userSpaceOnUse" x="0" y="0" width="24" height="24">
<rect width="24" height="24" fill="#D9D9D9"/>
</mask>
<g mask="url(#mask0_1539_1606)">
<path d="M1.33333 20C0.955556 20 0.638889 19.8722 0.383333 19.6167C0.127778 19.3611 0 19.0444 0 18.6667C0 18.2889 0.127778 17.9722 0.383333 17.7167C0.638889 17.4611 0.955556 17.3333 1.33333 17.3333H22.6667C23.0444 17.3333 23.3611 17.4611 23.6167 17.7167C23.8722 17.9722 24 18.2889 24 18.6667C24 19.0444 23.8722 19.3611 23.6167 19.6167C23.3611 19.8722 23.0444 20 22.6667 20H1.33333ZM1.33333 13.3333C0.955556 13.3333 0.638889 13.2056 0.383333 12.95C0.127778 12.6944 0 12.3778 0 12C0 11.6222 0.127778 11.3056 0.383333 11.05C0.638889 10.7944 0.955556 10.6667 1.33333 10.6667H22.6667C23.0444 10.6667 23.3611 10.7944 23.6167 11.05C23.8722 11.3056 24 11.6222 24 12C24 12.3778 23.8722 12.6944 23.6167 12.95C23.3611 13.2056 23.0444 13.3333 22.6667 13.3333H1.33333ZM1.33333 6.66667C0.955556 6.66667 0.638889 6.53889 0.383333 6.28333C0.127778 6.02778 0 5.71111 0 5.33333C0 4.95556 0.127778 4.63889 0.383333 4.38333C0.638889 4.12778 0.955556 4 1.33333 4H22.6667C23.0444 4 23.3611 4.12778 23.6167 4.38333C23.8722 4.63889 24 4.95556 24 5.33333C24 5.71111 23.8722 6.02778 23.6167 6.28333C23.3611 6.53889 23.0444 6.66667 22.6667 6.66667H1.33333Z" fill="#FB5850"/>
</g>
</svg>
